<svg xmlns="http://www.w3.org/2000/svg" viewBox="0 0 40 36"><defs><style>.cls-1{fill:#ea4335;}.cls-2{fill:#34a853;}.cls-3{fill:#4285f4;}.cls-4{fill:#fbbc05;}</style></defs><g id="Layer_2" data-name="Layer 2"><g id="Layer_1-2" data-name="Layer 1"><path class="cls-1" d="M37,13.62V33H10.09l2.32,3H37a2.92,2.92,0,0,0,2.08-.9A2.86,2.86,0,0,0,40,33V17.5Z"/><path class="cls-2" d="M37,7.35v6.27l3,3.88V7.35a2.86,2.86,0,0,0-.92-2.07A2.87,2.87,0,0,0,37,4.35H29.83l2.32,3Z"/><path class="cls-3" d="M3,7.35h8.75L15.4,3h9.2l3.65,4.35h3.9l-2.32-3h-.18L26,0H14L10.35,4.35H3a2.83,2.83,0,0,0-2.1.93A2.88,2.88,0,0,0,0,7.35V20l3,3.88Z"/><path class="cls-4" d="M3,33V23.84L0,20V33a2.88,2.88,0,0,0,.9,2.1A2.88,2.88,0,0,0,3,36h9.41l-2.32-3Z"/><polygon class="cls-3" points="24.6 3 15.4 3 11.75 7.35 28.25 7.35 24.6 3"/><path class="cls-3" d="M20,11.7a8.27,8.27,0,0,0-8.47,8.47,8.32,8.32,0,0,0,2.42,6.08,8.2,8.2,0,0,0,6,2.45,8.37,8.37,0,0,0,8.53-8.53,8.2,8.2,0,0,0-2.45-6.05A8.32,8.32,0,0,0,20,11.7Z"/></g></g></svg>