<svg xmlns="http://www.w3.org/2000/svg" viewBox="0 0 28 38"><defs><style>.cls-1{fill:#4285f4;}.cls-2{fill:#fbbc05;}.cls-3{fill:#34a853;}.cls-4{fill:#ea4335;}</style></defs><g id="Layer_2" data-name="Layer 2"><g id="Layer_1-2" data-name="Layer 1"><path class="cls-1" d="M14,22.85a4.75,4.75,0,0,1-3.6-1.55A5.27,5.27,0,0,1,9,17.55V5a4.79,4.79,0,0,1,1.47-3.54A4.91,4.91,0,0,1,14,0a4.93,4.93,0,0,1,3.58,1.46A4.79,4.79,0,0,1,19.05,5V17.55A5.27,5.27,0,0,1,17.6,21.3,4.75,4.75,0,0,1,14,22.85Z"/><path class="cls-2" d="M3,17.55H0a13.12,13.12,0,0,0,3.6,9.2c.21.23.43.43.65.64l1.89-2.26A10.22,10.22,0,0,1,3,17.55Z"/><path class="cls-3" d="M12.5,31.22V38h3V31.22A15,15,0,0,1,12.5,31.22Z"/><path class="cls-4" d="M28,17.55H25a10.23,10.23,0,0,1-3.22,7.65A10.84,10.84,0,0,1,14,28.3a10.8,10.8,0,0,1-7.78-3.1.46.46,0,0,0-.07-.07L4.25,27.39a13.38,13.38,0,0,0,4.71,3H9l.07,0,.1,0a13.68,13.68,0,0,0,3.38.78,15,15,0,0,0,3,0A14.79,14.79,0,0,0,18,30.74l.2-.06c.28-.09.55-.18.81-.28l.43-.16.21-.08h0a13.8,13.8,0,0,0,4.82-3.42A13.12,13.12,0,0,0,28,17.55Z"/></g></g></svg>