<?xml version="1.0" encoding="utf-8"?>
<!-- Generator: Adobe Illustrator 26.0.0, SVG Export Plug-In . SVG Version: 6.00 Build 0)  -->
<svg version="1.1" id="Layer_1" xmlns="http://www.w3.org/2000/svg" xmlns:xlink="http://www.w3.org/1999/xlink" x="0px" y="0px"
	 viewBox="0 0 48 48" style="enable-background:new 0 0 48 48;" xml:space="preserve">
<style type="text/css">
	.st0{fill:#4285F4;}
	.st1{fill:#FBBC05;}
	.st2{fill:#34A853;}
	.st3{fill:#EA4335;}
</style>
<path class="st0" d="M24,26.9c-1.4,0-2.6-0.5-3.6-1.5c-1-1-1.4-2.3-1.4-3.8V9c0-1.4,0.5-2.6,1.5-3.5c1-1,2.2-1.5,3.6-1.5
	c1.4,0,2.6,0.5,3.6,1.5c1,1,1.5,2.2,1.5,3.5v12.6c0,1.5-0.5,2.7-1.5,3.8C26.6,26.3,25.4,26.9,24,26.9z"/>
<path class="st1" d="M13,21.5h-3c0,3.5,1.2,6.6,3.6,9.2c0.2,0.2,0.4,0.4,0.6,0.6l1.9-2.3C14.1,27.1,13,24.5,13,21.5z"/>
<path class="st2" d="M22.5,35.2V42h3v-6.8C24.4,35.3,23.4,35.3,22.5,35.2z"/>
<path class="st3" d="M38,21.5h-3c0,3-1.1,5.6-3.2,7.7c-2.2,2.1-4.7,3.1-7.8,3.1s-5.6-1-7.8-3.1c0,0,0,0-0.1-0.1l-1.9,2.3
	c1.4,1.3,3,2.3,4.7,3l0,0c0,0,0,0,0.1,0c0,0,0.1,0,0.1,0c0.4,0.2,1.7,0.6,3.4,0.8c0.9,0.1,1.9,0.1,3,0c0.8-0.1,1.6-0.2,2.5-0.5
	c0.1,0,0.1,0,0.2-0.1c0.3-0.1,0.5-0.2,0.8-0.3c0.1-0.1,0.3-0.1,0.4-0.2c0.1,0,0.1,0,0.2-0.1l0,0c1.8-0.8,3.4-1.9,4.8-3.4
	C36.8,28.2,38,25.1,38,21.5z"/>
</svg>
